<svg xmlns="http://www.w3.org/2000/svg" width="14.049" height="18.732" viewBox="0 0 14.049 18.732">
  <g id="Group_436" data-name="Group 436" transform="translate(-3645 -785.6)">
    <g id="interest-send" transform="translate(3645 785.6)">
      <path id="Path_1241" data-name="Path 1241" d="M78.049,0H65.9V1.9H64V15.676l3.055,3.055h9.091v-1.9h1.9ZM66.927,17.982l-2.177-2.177h2.177Zm8.781.31H67.366V15.366H64.439V2.341H75.707Zm1.9-1.9H76.146V1.9h-9.8V.439H77.61Z" transform="translate(-64)" fill="#277ab9"/>
      <path id="Path_1242" data-name="Path 1242" d="M118,100h5.854v.439H118Z" transform="translate(-116.024 -96.341)" fill="#277ab9"/>
      <path id="Path_1243" data-name="Path 1243" d="M118,132h4.683v.439H118Z" transform="translate(-116.024 -127.171)" fill="#277ab9"/>
      <path id="Path_1244" data-name="Path 1244" d="M113.61,180H112v1.61h1.61Zm-.439,1.171h-.732v-.732h.732Z" transform="translate(-110.244 -173.415)" fill="#277ab9"/>
      <path id="Path_1245" data-name="Path 1245" d="M182,212h4.683v.439H182Z" transform="translate(-177.683 -204.244)" fill="#277ab9"/>
      <path id="Path_1246" data-name="Path 1246" d="M182,180h5.854v.439H182Z" transform="translate(-177.683 -173.415)" fill="#277ab9"/>
      <path id="Path_1247" data-name="Path 1247" d="M113.61,260H112v1.61h1.61Zm-.439,1.171h-.732v-.732h.732Z" transform="translate(-110.244 -250.488)" fill="#277ab9"/>
      <path id="Path_1248" data-name="Path 1248" d="M182,292h4.683v.439H182Z" transform="translate(-177.683 -281.317)" fill="#277ab9"/>
      <path id="Path_1249" data-name="Path 1249" d="M182,260h5.854v.439H182Z" transform="translate(-177.683 -250.488)" fill="#277ab9"/>
      <path id="Path_1250" data-name="Path 1250" d="M113.61,340H112v1.61h1.61Zm-.439,1.171h-.732v-.732h.732Z" transform="translate(-110.244 -327.561)" fill="#277ab9"/>
      <path id="Path_1251" data-name="Path 1251" d="M182,372h4.683v.439H182Z" transform="translate(-177.683 -358.39)" fill="#277ab9"/>
      <path id="Path_1252" data-name="Path 1252" d="M182,340h5.854v.439H182Z" transform="translate(-177.683 -327.561)" fill="#277ab9"/>
      <path id="Path_1253" data-name="Path 1253" d="M182,452h4.683v.439H182Z" transform="translate(-177.683 -435.463)" fill="#277ab9"/>
      <path id="Path_1254" data-name="Path 1254" d="M182,420h5.854v.439H182Z" transform="translate(-177.683 -404.634)" fill="#277ab9"/>
    </g>
  </g>
</svg>
