<svg xmlns="http://www.w3.org/2000/svg" width="19.557" height="19.472" viewBox="0 0 19.557 19.472">
  <g id="Group_517" data-name="Group 517" transform="translate(-326 -626.235)">
    <g id="Group_507" data-name="Group 507">
      <g id="more-icon-01" transform="translate(312.5 611.635)">
        <path id="Path_1260" data-name="Path 1260" d="M22.429,15.3H13.99a.492.492,0,0,0-.49.49v8.439a.492.492,0,0,0,.49.49h8.439a.492.492,0,0,0,.49-.49V15.79A.487.487,0,0,0,22.429,15.3Zm-.08,8.359a.492.492,0,0,1-.49.49h-7.3a.492.492,0,0,1-.49-.49v-7.3a.492.492,0,0,1,.49-.49h7.291a.492.492,0,0,1,.49.49v7.3Z" transform="translate(0 -0.672)" fill="#277ab9"/>
        <path id="Path_1261" data-name="Path 1261" d="M22.429,265H13.99a.492.492,0,0,0-.49.49v8.439a.492.492,0,0,0,.49.49h8.439a.492.492,0,0,0,.49-.49V265.49A.487.487,0,0,0,22.429,265Zm-.08,8.355a.492.492,0,0,1-.49.49h-7.3a.492.492,0,0,1-.49-.49v-7.291a.492.492,0,0,1,.49-.49h7.291a.492.492,0,0,1,.49.49v7.291Z" transform="translate(0 -240.347)" fill="#277ab9"/>
        <path id="Path_1262" data-name="Path 1262" d="M273.529,265H265.09a.492.492,0,0,0-.49.49v8.439a.492.492,0,0,0,.49.49h8.439a.492.492,0,0,0,.49-.49V265.49A.492.492,0,0,0,273.529,265Zm-.084,8.355a.492.492,0,0,1-.49.49h-7.3a.492.492,0,0,1-.49-.49v-7.291a.492.492,0,0,1,.49-.49h7.291a.492.492,0,0,1,.49.49v7.291Z" transform="translate(-241.019 -240.347)" fill="#277ab9"/>
        <path id="Path_1263" data-name="Path 1263" d="M270.514,14.6a4.714,4.714,0,1,0,4.714,4.714A4.713,4.713,0,0,0,270.514,14.6Zm0,8.849a4.139,4.139,0,1,1,4.139-4.139A4.139,4.139,0,0,1,270.514,23.449Z" transform="translate(-242.17)" fill="#277ab9"/>
      </g>
    </g>
  </g>
</svg>
