<svg xmlns="http://www.w3.org/2000/svg" width="14.634" height="18.732" viewBox="0 0 14.634 18.732">
  <g id="search-requirement" transform="translate(-56)">
    <path id="Path_1233" data-name="Path 1233" d="M116.694,152.947l1.71-2.058a.274.274,0,1,0-.422-.351l-1.466,1.764-.32-.521a.274.274,0,0,0-.467.288l.521.846A.274.274,0,0,0,116.694,152.947Z" transform="translate(-57.504 -144.935)" fill="#277ab9"/>
    <path id="Path_1234" data-name="Path 1234" d="M115.73,251.068l.521.846a.274.274,0,0,0,.445.032l1.71-2.058a.274.274,0,0,0-.422-.351l-1.466,1.764-.32-.521a.274.274,0,1,0-.467.288Z" transform="translate(-57.505 -240.312)" fill="#277ab9"/>
    <path id="Path_1235" data-name="Path 1235" d="M115.73,350.735l.521.846a.274.274,0,0,0,.445.032l1.71-2.058a.274.274,0,0,0-.422-.351l-1.466,1.764-.32-.521a.274.274,0,1,0-.467.288Z" transform="translate(-57.505 -336.333)" fill="#277ab9"/>
    <path id="Path_1236" data-name="Path 1236" d="M70.36,159.337a.274.274,0,0,0-.274.274v2a.421.421,0,0,1-.421.421H56.97a.421.421,0,0,1-.421-.421V149.583a.274.274,0,1,0-.549,0v12.025a.971.971,0,0,0,.97.97h12.7a.971.971,0,0,0,.97-.97v-2A.274.274,0,0,0,70.36,159.337Z" transform="translate(0 -143.846)" fill="#277ab9"/>
    <path id="Path_1237" data-name="Path 1237" d="M69.665,2.114H68.323V.98a.98.98,0,1,0-1.961,0V2.114H64.3V.98a.98.98,0,0,0-1.961,0V2.114H60.273V.98a.98.98,0,0,0-1.961,0V2.114H56.97a.971.971,0,0,0-.97.97V4.456a.274.274,0,1,0,.549,0V3.084a.421.421,0,0,1,.421-.421h1.342V3.1a.98.98,0,0,0,1.961,0V2.663h2.064V3.1a.98.98,0,0,0,1.961,0V2.663h2.064V3.1a.98.98,0,1,0,1.961,0V2.663h1.342a.421.421,0,0,1,.421.421v11.4a.274.274,0,0,0,.549,0V3.084a.971.971,0,0,0-.97-.97ZM59.724,3.1a.432.432,0,0,1-.863,0V.98a.432.432,0,0,1,.863,0Zm4.025,0a.432.432,0,0,1-.863,0V.98a.432.432,0,0,1,.863,0Zm4.025,0a.432.432,0,0,1-.863,0V.98a.432.432,0,0,1,.863,0Z" transform="translate(0)" fill="#277ab9"/>
    <path id="Path_1238" data-name="Path 1238" d="M199.1,179.9h5.781a.86.86,0,0,0,0-1.72H199.1a.86.86,0,1,0,0,1.72Zm0-1.171h5.781a.311.311,0,0,1,0,.622H199.1a.311.311,0,1,1,0-.622Z" transform="translate(-137.035 -171.664)" fill="#277ab9"/>
    <path id="Path_1239" data-name="Path 1239" d="M199.1,279.116h5.781a.86.86,0,0,0,0-1.72H199.1a.86.86,0,0,0,0,1.72Zm0-1.171h5.781a.311.311,0,1,1,0,.622H199.1a.311.311,0,1,1,0-.622Z" transform="translate(-137.035 -267.247)" fill="#277ab9"/>
    <path id="Path_1240" data-name="Path 1240" d="M199.1,378.328h5.781a.86.86,0,1,0,0-1.72H199.1a.86.86,0,1,0,0,1.72Zm0-1.171h5.781a.311.311,0,0,1,0,.622H199.1a.311.311,0,1,1,0-.622Z" transform="translate(-137.035 -362.83)" fill="#277ab9"/>
  </g>
</svg>
